<svg width="17" height="16" viewBox="0 0 17 16" fill="none" xmlns="http://www.w3.org/2000/svg">
<rect x="0.916626" y="0.25" width="15.5" height="15.5" rx="1.75" fill="white"/>
<path d="M5.58091 3.11333C5.52188 3.18478 5.31064 3.70356 5.31064 3.78744C5.31064 3.82161 5.34792 3.88685 5.39452 3.93655C5.46597 4.01111 5.47218 4.03285 5.44112 4.10119C5.41626 4.15711 5.38209 4.17886 5.31686 4.17886C5.146 4.17886 5.04659 4.33729 5.146 4.45223C5.17706 4.4864 5.41316 4.59823 5.66789 4.70385C5.92573 4.80637 6.4414 5.01761 6.81729 5.17293C7.19317 5.32515 7.52867 5.45251 7.56906 5.45251C7.71817 5.45251 7.79583 5.24127 7.67157 5.16672C7.60323 5.12323 7.5908 5.04557 7.64051 4.95548C7.66536 4.90888 7.69332 4.89956 7.76476 4.91199C7.89524 4.93994 7.97911 4.83743 8.1189 4.4895C8.26802 4.11362 8.25559 4.06392 7.97601 3.95208C7.86728 3.90859 7.33607 3.68803 6.78933 3.46747C6.24569 3.24381 5.76108 3.06052 5.71449 3.06052C5.66789 3.06052 5.60887 3.08537 5.58091 3.11333Z" fill="#FF3A30"/>
<path d="M4.92851 5.3624C4.76076 5.77556 4.6365 6.12348 4.64893 6.13902C4.69552 6.18251 6.75202 7.00573 6.78619 6.99641C6.80172 6.98709 6.8421 6.90942 6.87628 6.82244C6.90734 6.73546 6.94462 6.65469 6.96015 6.64537C6.97568 6.63605 7.47583 6.82866 8.06917 7.07096C9.72803 7.74818 11.0638 8.29181 13.1172 9.13056C13.7292 9.37908 14.2573 9.58411 14.2915 9.58411C14.3256 9.58411 14.3971 9.56547 14.453 9.54062C14.717 9.43189 14.7419 9.04668 14.4965 8.88825C14.4592 8.8634 14.0025 8.66769 13.4807 8.45645C9.47019 6.82555 7.31118 5.9371 7.28633 5.91535C7.2708 5.89982 7.28633 5.82216 7.32361 5.72896C7.36089 5.64198 7.39195 5.55189 7.39195 5.53015C7.39195 5.5084 6.92287 5.30027 6.34507 5.06417C5.76726 4.83119 5.28265 4.63237 5.26401 4.62616C5.24848 4.61995 5.09626 4.95234 4.92851 5.3624Z" fill="#FF3A30"/>
<path d="M4.34761 6.22914C4.26374 6.31302 4.26995 6.39689 4.36625 6.48698C4.4346 6.55222 4.44081 6.56775 4.40664 6.64231C4.37557 6.71065 4.34761 6.72618 4.25442 6.72618C4.15191 6.72618 4.03697 6.79763 4.03697 6.85976C4.03697 6.86908 3.98726 6.98402 3.92824 7.11139C3.80087 7.39097 3.78845 7.54319 3.89096 7.60842C3.92824 7.63327 4.21714 7.75753 4.534 7.8849C4.85086 8.01537 5.28267 8.19244 5.49701 8.27942C5.71136 8.36641 5.98473 8.47513 6.10588 8.52173C6.31712 8.59939 6.33266 8.59939 6.40411 8.55279C6.49109 8.49377 6.70854 7.99673 6.70854 7.85384C6.70854 7.80724 6.67437 7.73268 6.62777 7.68298C6.547 7.60221 6.547 7.596 6.59671 7.51834C6.63399 7.45931 6.67437 7.44067 6.75514 7.44067C6.84212 7.44067 6.87319 7.42514 6.90114 7.36301C6.97881 7.19215 6.95706 7.17662 5.67098 6.65473C5.0124 6.38758 4.45945 6.16701 4.44081 6.16701C4.42528 6.16701 4.38179 6.19497 4.34761 6.22914Z" fill="#FF3A30"/>
<path d="M2.72605 10.6745C2.66392 10.7087 2.6515 10.8858 2.7012 10.9852C2.73227 11.0442 2.80061 11.0442 5.63683 11.0442C8.85204 11.0442 8.63458 11.0597 8.63458 10.8423C8.63458 10.6248 8.84893 10.6403 5.65857 10.6403C3.76051 10.6435 2.76022 10.6528 2.72605 10.6745Z" fill="#FF3A30"/>
<path d="M2.98693 11.7805L2.99625 12.3645H5.65229H8.30833L8.31765 11.7805L8.32386 11.1996H5.65229H2.98071L2.98693 11.7805Z" fill="#FF3A30"/>
<path d="M2.82541 12.5291C2.70736 12.5477 2.67009 12.5943 2.67009 12.7217C2.67009 12.9546 2.44331 12.9391 5.66163 12.9391C8.86752 12.9391 8.63453 12.9546 8.63453 12.7248C8.63453 12.6595 8.6159 12.5881 8.59415 12.5694C8.56309 12.5446 7.74297 12.5322 5.72687 12.5291C4.17362 12.5228 2.8689 12.5259 2.82541 12.5291Z" fill="#FF3A30"/>
<rect x="0.916626" y="0.25" width="15.5" height="15.5" rx="1.75" stroke="#FF3A30" stroke-width="0.5"/>
</svg>
