<svg xmlns="http://www.w3.org/2000/svg" width="67" height="70" viewBox="0 0 67 70">
    <g fill="none" fill-rule="evenodd">
        <path fill="#0066B3" fill-rule="nonzero" d="M43.567 1.689c-13.34-4.397-27.99.056-36.676 11.147-8.528 11.193-9.195 26.55-1.67 38.448a33.123 33.123 0 0 0 13.478 11.891c.087.149.226.166.496.289v-.053a33.052 33.052 0 0 0 21.466 2.214 33.796 33.796 0 0 0 4.072-1.26c.112-.044.22-.096.322-.157 11.254-4.49 19.217-14.744 20.823-26.81.214-1.692.299-3.397.252-5.102-.483-13.92-9.459-26.095-22.563-30.607zm-16.732 54.25c1.06-.073 2.109-.27 3.124-.587a44.501 44.501 0 0 1 6.247-1.846c1.27-.21 4.446-.63 4.542 1.348a13.635 13.635 0 0 1 3.48-.928c-.182.096-.347.21-.53.306a23.496 23.496 0 0 1-16.863 1.707zm18.412-2.564a3.756 3.756 0 0 0-.696-.07 7.246 7.246 0 0 0-1.984.333c-.352.154-.72.268-1.097.34-.235.202-.382.15-.443-.13a1.905 1.905 0 0 0-.296-.35c-1.74-1.645-5.412-.526-7.388.06-2.81.832-5.508 2.24-8.518 1.68-.157 0-.305-.07-.453-.104a22.88 22.88 0 0 1-7.77-5.032c-6.761-6.729-8.82-16.894-5.214-25.746S23.552 9.712 33.065 9.686c1.13 0 2.257.08 3.376.236 9.21 1.352 16.76 8.044 19.247 17.063 2.663 10.148-1.573 20.855-10.441 26.39z"/>
        <path fill="#FFF" fill-rule="nonzero" d="M33.065 57.417C23.33 57.45 14.54 51.57 10.81 42.53c-3.73-9.041-1.663-19.452 5.234-26.359a23.91 23.91 0 0 1 26.276-5.25c9.006 3.783 14.837 12.673 14.75 22.487-.159 11.699-8.557 21.635-20.012 23.678a23.608 23.608 0 0 1-4.003.332m0 .604c10.381-.008 19.642-6.563 23.153-16.387 3.511-9.824.519-20.807-7.482-27.459a24.524 24.524 0 0 0-28.372-2.17c-8.958 5.397-13.559 15.888-11.48 26.18 2.319 11.572 12.451 19.88 24.19 19.836"/>
        <path fill="#FFF" fill-rule="nonzero" d="M56.402 52.133c-.34-.552-.696-1.086-1.053-1.628l-.757.962 1.81.666zm-3.698-.42c-.575-.184.165-.876.54-.788.373.088.434.35.756.254.157-.053.357-.394.453-.508.374-.49.557-.647.226-1.155-.2-.297-.348-.385-.13-.726.217-.341.313-.28.565-.096.53.376.766 1.233 1.122 1.75.357.516 1.193 1.321.975 2.056-.296.875-1.375.446-1.966.201-.836-.385-1.689-.682-2.541-.989zm4.002-3.886c.331.184.87-.166 1.062-.446.191-.28.087-.516-.261-.726-.348-.21-.6-.429-.87 0s-.4.875.06 1.172h.01zm-.391.806c-1.088-.613-.514-1.83-.052-2.626.356-.656.591-.656 1.253-.314.66.34 1.079.665 1.644.953.566.289 1.2.49 1.07 1.12-.179.509-.419.993-.713 1.444-.209.359-.714.954-.922.254-.166-.525.574-1.225.809-1.636-.183-.097-.705-.534-.87-.473-.166.061-.4.508-.505.648-.453.612-.87 1.102-1.67.664l-.044-.035zm1.018-4.157c-.174-.07 0-.56.06-.665.218-.288.445-.227.793-.218.609 0 1.279 0 1.488-.683-.444-.149-1.82-.236-1.74-.945.165-1.094 2.505.954 2.027-.534-.157-.498-.792-.63-1.123-.971-.33-.341-.383-.822 0-.998.592-.253 1.74 1.26 1.74 1.75a2.175 2.175 0 0 1 1.958-.428.499.499 0 0 1 .061.875c-.252.175-.748 0-1.044.061-.296.061-1.436.315-.679.77.261.149 1.897.315 1.131 1.041-.46.438-1.096-.437-1.592-.306-.8.21.41 1.111.696 1.321.287.21.514.377.34.779s-.314.367-.636.227a2.562 2.562 0 0 1-1.157-1.487 2.668 2.668 0 0 1-2.393.429l.07-.018zm2.871-6.623a1.8 1.8 0 0 1-1.035-1.304c0-.359.2-.963.652-.928.688 0 .096.569.166.875.122.543.87.158 1.183 0 .313-.157 2.959-1.373 2.41-.184-.356.78-1.74.876-2.48 1.016.639.288 1.26.613 1.863.97.33.22.609.762.06.972-.339.122-.87-.385-1.14-.551-.539-.315-1.096-.604-1.644-.919l-.035.053zm-.713-3.5c-.192 0-.192-.683-.13-.78.19-.253.965-.13 1.252-.14.531 0 2.089.255 2.315-.314.391-.971-.949-.761-1.488-.875-.54-.114-2.61-.42-2.193-1.497a.4.4 0 0 1 .453-.306c.391.07.182.236.4.42.388.296.854.473 1.34.508.757.122 2.097-.149 2.21.875.078.682.261 1.82-.513 2.047a6.282 6.282 0 0 1-1.671 0c-.618-.026-1.28.009-1.94.035l-.035.026zm.313-4.446c-.757.15-1-1.04-.992-1.575a1.854 1.854 0 0 1 1.227-1.688 2.512 2.512 0 0 1 2.61.227c.563.5.81 1.268.644 2.004-.104.227-.496.656-.783.438-.287-.22 0-.56 0-.875a1.14 1.14 0 0 0-.405-.883 1.127 1.127 0 0 0-.935-.246c-.635 0-1.496.341-1.566 1.085-.044.411.827 1.347.2 1.452v.061zm-.165-10.316c-.183-.341-.33-.831-.766-.875-.435-.044-.592.166-.644.525 0 .219.061.797.27.875.209.079.957-.367 1.175-.49l-.035-.035zm-2.672 2.459c-.287.131-.46-.586-.4-.753.148-.376 1.07-.612 1.392-.796a.983.983 0 0 0-.913-.639c-.47 0-1.21.412-1.567-.122-.548-.822 1.671-.875 2.063-.516a1.046 1.046 0 0 1 .123-.874c.168-.259.442-.43.747-.465a1.678 1.678 0 0 1 1.636.98c.513.805.565 1.295-.331 1.75-.896.455-1.81.971-2.715 1.47l-.035-.035zm-.409-7.053c-.617.193-1.218.42-1.818.64l.73.988 1.088-1.627zm-1.279 3.5c-.2.29-.46.07-.591-.148-.13-.219-.053-.447.087-.718.313-.586.313-.595-.148-1.155-.461-.56-.453-.551-1.097-.367-.644.183-1.079-.377-.417-.788.616-.262 1.254-.47 1.905-.621.583-.227 1.54-.875 2.123-.359.583.517 0 1.383-.348 1.899-.548.744-1.035 1.505-1.531 2.266l.017-.009zm-1.74-6.37c.261-.27.122-.55-.078-.805-.33-.437-.41-.323-.749.044-.339.368-.435.368-.078.7.357.333.635.377.87.061h.035zm-1.122 1.505c.295-.306.148-.647-.087-.936-.41-.507-.47-.437-.87 0-.4.438-.48.455 0 .814.295.245.67.49 1.009.123h-.052zm.73.604a1.282 1.282 0 0 1-1.653.14c-.374-.201-1.113-.673-1.253-1.102-.191-.595.461-1.006.87-1.409.41-.402.697-.814 1.053-1.216.357-.403.6-.648 1.062-.508a2.87 2.87 0 0 1 1.096 1.094c.444.77 0 2.109-1.061 1.654.296.412.26.977-.087 1.347h-.026zm-3.515-4.209c.392-.586.6-1.417-.104-1.872-.705-.455-1.688.289-1.984 1.05-.583 1.531 1.305 2.074 2.088.822zm.792.473a2.047 2.047 0 0 1-1.808.97 2.049 2.049 0 0 1-1.74-1.089 2.071 2.071 0 0 1 .068-2.06c1.583-2.371 5.046-.262 3.48 2.179zm-3.437-4.174c-.244.569-.87-.052-1.166-.183-.487-.184-.522.052-.713.49-.288.656-.479 1.347-.827 1.977-.192.35-.775 1.076-1.07.245-.157-.42.4-1.059.583-1.409.304-.603.487-1.645.983-2.1.496-.455.792-.07 1.279.131.322.132 1.175.342.931.875v-.026zm-5.22-.201c.156-.569.19-1.33-.401-1.662-.8-.455-1.47.21-1.74.936-.27.726-.261 1.557.54 1.855.8.297 1.435-.429 1.6-1.129zm.87.201c-.144.77-.71 1.39-1.46 1.602a2.038 2.038 0 0 1-2.074-.609 2.065 2.065 0 0 1-.374-2.139 2.042 2.042 0 0 1 1.467-1.478 2.029 2.029 0 0 1 1.994.585c.508.546.68 1.328.446 2.04zm-5.552.744c0 .219-.74.096-.81 0-.069-.096 0-1.015.053-1.26.052-.569.548-2.091-.104-2.345-.87-.35-.792.875-.949 1.435-.157.56-.766 2.564-1.74 1.969-.496-.306-.113-.63.148-.875.41-.348.681-.833.765-1.365.087-.528.2-1.05.34-1.566.217-.534.548-.438 1.027-.385.757.096 1.644-.114 1.67.875-.032.473-.1.944-.2 1.408-.026.718-.07 1.418-.14 2.1l-.06.009zm-6.43-3.57c-.166.63-.314 1.251-.47 1.881l1.218-.087-.748-1.794zm2.21 3.019c.209.551-.688.463-.87.201-.183-.263-.061-.621-.34-.779a1.298 1.298 0 0 0-.609 0 2.372 2.372 0 0 0-.87.123c-.304.183-.165.297-.27.621-.191.551-.87.753-.87 0 .138-.797.339-1.58.6-2.345.122-.595.192-1.584.94-1.697.749-.114 1.045.787 1.253 1.365.314.822.67 1.653 1.036 2.493v.018zm-4.769.665c.088.306-.704.306-.87.192-.365-.28-.113-1.024-.348-1.373-.235-.35-.304-.237-.757-.14-.287.06-.765 0-.87.332-.104.332.261.875.322 1.12.061.245-.052 1.032-.609.761-.278-.14-.322-.682-.374-.945-.122-.56-.244-1.128-.4-1.689-.105-.393-.54-1.172-.21-1.54.445-.507.766.123.87.473.149.577.044.971.697.936.244 0 .87-.149 1.027-.385.156-.236-.2-.779-.253-1.094-.078-.56.357-1.032.827-.472.27.324.252.962.33 1.347.183.814.418 1.637.618 2.46v.017zm-10.693.393c-.418.272-1.436 1.12-.418 1.47.312.06.634-.03.87-.245.287-.27.191-.087.087-.428a3.965 3.965 0 0 0-.54-.797zm2.61 2.52c.14.237-.548.508-.687.473-.279-.088-.418-.551-.54-.779-.583-1.085-1.061 0-.87.779.104.429.278.805-.13 1.129-.41.324-.462.227-.644-.088a2.542 2.542 0 0 1 0-1.907 1.013 1.013 0 0 1-.869-.058 1.024 1.024 0 0 1-.506-.712c-.092-.707.252-1.4.87-1.75.766-.569 1.253-.657 1.792.21.54.866 1.062 1.82 1.584 2.704zm-6.961.928c.235.604.505 1.19.757 1.75l.914-.822-1.671-.928zm3.567 1.05c.54.289-.313.796-.67.683-.356-.114-.365-.412-.696-.377-.165 0-.426.324-.53.42-.453.42-.653.543-.418 1.103.14.323.27.437 0 .735-.27.297-.357.219-.574 0-.453-.464-.54-1.348-.8-1.934-.262-.586-.958-1.496-.619-2.144.435-.875 1.427-.192 1.967.149.757.481 1.549.919 2.332 1.365h.008zm-3.393 3.439c.148.114-.191.534-.261.577-.261.149-.366 0-.61-.14-.243-.14-.8-.875-1.035-.875-.087 0-.4.429-.47.499-.391.438-.626.656-.174 1.094.296.288 1.053.542.992.98-.113.761-.765.315-1.07.052-.565-.49-1.166-.98-1.74-1.417-.348-.245-1.305-.77-.627-1.243.68-.472 1.158.525 1.54.832.392-.482 1.254-1.042.644-1.567-.33-.288-1.366-.726-.609-1.26.488-.341 1.062.403 1.384.709.618.656 1.34 1.199 2.036 1.759zm-4.142 3.614c-.635-.342-1.74.656-.87 1.18.18.12.376.212.583.272.322.044.122.123.365-.149a.878.878 0 0 0-.052-1.303h-.026zm.4-.823c1.105.639.653 2.284-.052 3.089-.452.525-.87.07-1.331-.21-.679-.42-1.392-.779-2.097-1.146-.348-.184-.87-.674-.226-.998.644-.324.948.726 1.444.578.27-.08.61-.823.818-1.05.337-.459.97-.574 1.444-.263zm-.974 4.594c.296.105-.174.77-.322.813-.148.044-.714-.244-.966-.35a9.953 9.953 0 0 0-2.28-.813c-.188.253-.291.559-.296.875.131.446 1.48.822 1.863 1.067.423.223.764.575.974 1.006.13.333.252.954-.26.98-.514.027-.488-.612-.697-.875a2.852 2.852 0 0 0-1.105-.717c-.583-.271-1.619-.551-1.636-1.313 0-.524.557-1.846 1.088-1.924.53-.08 1.14.384 1.549.524l2.088.727zM3.48 28.35c.549.324 1.123.612 1.689.919l.208-1.208-1.896.289zm3.481-1.418c.583-.078.287.788 0 .928s-.618-.087-.87.14c-.097.184-.15.387-.157.595-.113.63-.209.875.34 1.225.27.14.409.122.452.473.044.35-.087.472-.357.49-.652 0-1.514-.876-2.097-1.13-.583-.253-1.575-.542-1.662-1.242-.121-.875.87-.98 1.497-1.059.931-.122 1.862-.227 2.802-.42h.052zm-3.35 5.04a.712.712 0 0 0-.53.235.72.72 0 0 0-.183.553c0 .306-.053.236.121.367.224.076.461.103.696.08 1.132.052.68-1.2-.104-1.235zm0-.875a1.305 1.305 0 0 1 1.262.875c.174.43 0 1.138.443 1.295.444.158.966-.253 1.227.123.392.56-.26.796-.635.77-.705 0-1.41-.079-2.114-.087-.522 0-1.332.218-1.558-.394-.348-.963.253-2.625 1.375-2.573v-.009zm2.61 4.218c.575-.052.557 1.383.592 1.75.07 1.059-.87.875-1.67.936-.801.062-2.21.639-2.61-.105-.201-.385-.48-1.837 0-2.135.87-.586.46 1.426.67 1.584.331.046.67-.006.974-.149.104-.131 0-.411 0-.577 0-.166-.218-.639 0-.823a.407.407 0 0 1 .6.228c.14.28-.14.7.096.971.235.271.87.053 1.218 0 0-.376-.513-1.627.148-1.75l-.018.07zm-2.358 5.758c.21.726.105.997.87.874a4.613 4.613 0 0 1 2.367 0c-.148-.525-.156-1.487-.713-1.61-.74-.157-1.81.534-2.524.735zm4.055-2.626c.305-.096.279.665.113.797-.165.131-.713-.088-.87.297-.156.385.461 1.75.592 2.188.243.822.496.131 1.07.28a.422.422 0 0 1 .252.691c-.417.234-.88.372-1.357.402-.435-.052-.687-.41-1.183-.41-.783 0-1.889.516-2.61.21-.453-.184-.436-.63-.54-1.05-.105-.42-.496-.99-.235-1.366.513-.743 2.219-.498 2.94-.936.419-.254.105-.061.305-.42s.096-.219.436-.359c.356-.129.719-.237 1.087-.324zm.218 5.25c.565-.236.948 1.12 1.105 1.488.435 1.032-.81 1.242-1.532 1.557-.574.254-1.627 1.2-2.218.648a4.518 4.518 0 0 1-.87-1.916c.347-.945.913.542 1.009.744.095.2.156.323.426.314.263-.044.51-.16.714-.332.217-.481-.723-.875-.453-1.33.461-.805.983.796 1.088 1.024.513-.245 1.14-.263.957-.875-.104-.35-.87-1.024-.261-1.304l.035-.018zm.652 7.175c.317.46.945.573 1.401.254.457-.319.57-.95.253-1.408l-1.654 1.154zm-.182-2.02a.962.962 0 0 0-.296 1.33L9.963 49a.98.98 0 0 0-1.323-.193l-.034.044zm-.505-.727a1.498 1.498 0 0 1 1.74 0c.2.114.479.367.714.385.07 0 .243-.219.435-.157.652.183.2.664.122.874-.148.456.356 1.042.2 1.593a1.742 1.742 0 0 1-1.48 1.164c-.652.052-.8-.438-1.322-.639s-.818.297-1.044-.28c-.148-.376.087-.42.226-.586.14-.166-.305-1.015-.305-1.19.038-.481.303-.914.714-1.164z"/>
        <path fill="#FFF" fill-rule="nonzero" d="M33.065 57.417C23.33 57.45 14.54 51.57 10.81 42.53c-3.73-9.041-1.663-19.452 5.234-26.359a23.91 23.91 0 0 1 26.276-5.25c9.006 3.783 14.837 12.673 14.75 22.487-.159 11.699-8.557 21.635-20.012 23.678a23.608 23.608 0 0 1-4.003.332m0 .604c10.381-.008 19.642-6.563 23.153-16.387 3.511-9.824.519-20.807-7.482-27.459a24.524 24.524 0 0 0-28.372-2.17c-8.958 5.397-13.559 15.888-11.48 26.18 2.319 11.572 12.451 19.88 24.19 19.836"/>
        <path fill="#FFF" fill-rule="nonzero" d="M38.042 53.375c.992 0 2.654.201 2.689 1.531a11.935 11.935 0 0 1 3.95-.953c.374 0 .8.21 1.14.21.2 0 .252 0 .487-.193l-2.14 13.641a3.464 3.464 0 0 0-2.672-.42 35.21 35.21 0 0 0-4.35 1.61c-.87.333-2.55.919-3.48.219-.497-.385-.375-.875-.314-1.444-1.4.624-2.857 1.11-4.35 1.453-1.583.24-3.195.214-4.769-.079a14.232 14.232 0 0 1-4.35-1.426c-.462-.245-1.167-.499-1.236-.998.022-.477.101-.95.235-1.408l.374-2.284.87-5.434.548-3.325c2.315 1.383 4.481 2.196 7.231 1.75 3.48-.56 6.509-2.459 10.067-2.485"/>
        <path fill="#ED1C24" fill-rule="nonzero" d="M34.466 63.044l-.4 2.905c-.087.612-.644 2.38 0 2.782.643.403 1.74 0 2.332-.157.87-.263 1.653-.63 2.462-.963 1.392-.56 3.48-1.549 4.934-.717.217-1.75.54-3.5.765-5.25.044-.28.105-.315 0-.508-.304-.394-1.227-.315-1.618-.28-1.52.294-3.007.743-4.438 1.339-1.166.385-2.758 1.102-4.011.875"/>
        <path fill="#0066B3" fill-rule="nonzero" d="M44.429 62.667c.122-.752.235-1.513.357-2.275.078-.498.478-1.662.139-1.977-.6-.578-2.132-.157-2.793 0-2.045.578-4.02 1.514-6.091 1.881a5.59 5.59 0 0 0-1.062.079c-.078.07-.07.446-.087.542l-.365 2.337c-.087.595-.279 1.059.4 1.373.87.42 2.114 0 2.976-.34 1.74-.683 4.62-2.626 6.56-1.646"/>
        <path fill="#BE1E2D" fill-rule="nonzero" d="M33.726 68.346c.2-1.365 2.506-.875 3.42-.945.54 0 1.2-.114 1.436-.665a7.433 7.433 0 0 0 .226-2.074h-3.42c-.217 0-.783-.105-.983 0-.2.105-.279 1.112-.34 1.48l-.339 2.204z"/>
        <path fill="#ED1C24" fill-rule="nonzero" d="M19.143 66.5l1.044-6.274a10.039 10.039 0 0 0 4.35 1.505c2.863.228 5.387-.962 8.058-1.75a18.47 18.47 0 0 1 4.124-.875c.749-.052 1.871-.122 2.49.429.617.551.112 2.258 0 3.01-.21 1.409-.427 2.817-.636 4.226.34-2.196-6.961 1.007-7.762 1.304A13.337 13.337 0 0 1 19.143 66.5"/>
        <path fill="#0066B3" fill-rule="nonzero" d="M30.907 59.299a11.765 11.765 0 0 1-6.64.796 12.017 12.017 0 0 1-3.784-1.663l-.279 1.698a8.9 8.9 0 0 0-.356 2.161c.06.665 1.74 1.208 2.297 1.435 1.394.505 2.869.75 4.35.727 2.75-.053 5.143-1.243 7.727-2.022.931-.28 4.481-1.557 5.012-.07.113-.717.218-1.444.322-2.17a5.567 5.567 0 0 0 .252-1.75c-.174-.56-1.253-.63-1.74-.656a17.935 17.935 0 0 0-7.187 1.549"/>
        <path fill="#808D9C" fill-rule="nonzero" d="M44.046 37.205a9.225 9.225 0 0 0-.226-.516c.214.112.39.285.504.498-.113.14-.208.14-.278 0v.018zm-2.228-.017c0-.613-.217-1.2-.252-1.803.265.62.467 1.264.6 1.925a1.647 1.647 0 0 0-.348-.123zm-.922 6.37v-.105a.114.114 0 0 1 0 .104zm3.115 3.123c-.113.245-.391 1.111-.618 1.138a.783.783 0 0 1-.46-.289c-.288-.683.73-.779 1.078-.875v.026zm.54-.183c-.044.306-.253.323-.462.14.159-.03.314-.077.462-.14zm-17.577 2.887a.56.56 0 0 1 .174-.271c-.06.245-.087.175-.235.297l.061-.026zm-1.74-5.862c.078-.184 0-.044 0 0zm-2.376-4.314a1.7 1.7 0 0 1-1.105-2.056c.39-.867.869-1.691 1.427-2.46-.235.675-1.966 3.203-.522 3.64 1.445.438 1.514-2.178 1.888-2.904a9.674 9.674 0 0 0-.287 1.706c.086.459.454.811.914.875 1.21.053 1.027-1.75 1.044-2.494.627.455 1.027-.875 1.4.193a2.426 2.426 0 0 1-.365 2.45c.2.01.4-.027.583-.105a1.354 1.354 0 0 1-1.74.551c.015.12.054.236.113.341a1.824 1.824 0 0 0-1.662 1.68c-.304-.42-1.096-.105-1.096.394a3.348 3.348 0 0 0-.757-.306c.244.114.496.218.74.341-.4-.184-.818-.306-1.227-.464l.652-1.382zM45.9 36.067v.15a.228.228 0 0 1 0-.36c.087.07.079.14 0 .21zm-2.305 0c.187.025.336.171.365.36-.261 0-.27-.15-.365-.36zm-4.725 2.52a1.16 1.16 0 0 1-.566-.568c.184.078.383.114.583.105a2.373 2.373 0 0 1-.374-2.415c.418-1.164.757.245 1.41-.228 0 .551.278 1.322 0 1.838-.279.516-.87.743-1.08 1.268h.027zm2.332 9.328l-1.149-.534.844-1.706c.226.184.975.394 1.062.674.087.28-.6 1.286-.731 1.566H41.2zm-15.967-4.62c0 .149 0 .087 0 0zm20.013-7.954a.33.33 0 0 1 .34.158.451.451 0 0 1-.34-.158zm-2.054 0a.953.953 0 0 1 .33.411c-.225 0-.251-.253-.33-.41zm-3.167 8.409v.245-.245zm0-.341v.114-.114zm-3.193 5.311l.556.263c-.348.647-1.078-.184-.556-.263zm-5.221-1.102l.487-.245c-.113.525 0 1.364-.696 1.286a5.39 5.39 0 0 1 .209-1.041zM28.714 49c.089-.055.182-.102.279-.14 0 .236-.087.403-.279.14zm3.255-2.572c.47.105 0 .35-.174.455.052-.15.113-.307.174-.456zm5.133-4.944a2.93 2.93 0 0 0-2.253.612c.4-.787 1.549-1.417 2.253-.612zm-1.348 3.36c-.087 0-.87-.455-.818-.534.393-.019.775.13 1.053.411l-.235.123zm-4.003 0c-.13 0 .183-.298.174-.28l-.174.28zm.81 0c-.192 0 0-.272 0-.289v.289zm2.427.98c.435-.403 1.035.411 1.27.7a2.806 2.806 0 0 1-1.27-.7zm-1.558-1.199c0 .166.087.333.14.499-.14-.07-.122-.377-.14-.499zm2.698-1.846c0 .875 1.227 1.12 1.81.603a.51.51 0 0 0 .113.333l-1.95 1.006c0-.875-1.679-1.365 0-1.942h.027zm-.026 0c.325-.083.666-.083.992 0a.944.944 0 0 1-.992 0zm2.27.595c0 .087.096.113.175.061a.869.869 0 0 1-.296.157l.122-.218zm-.243 2.983c-.548-.429-1.13-.812-1.74-1.146l2.471-1.251a3.074 3.074 0 0 1-.705 2.398h-.026zm-7.448-1.828l-.174-.088c.204-.042.41-.071.618-.087a.512.512 0 0 1-.444.175zm-.957-.455l-.87-.403a.985.985 0 0 0 1.026-.875c-.557.254-1.305 0-1.244-.665.05-.33.245-.622.532-.792a1.1 1.1 0 0 1 .947-.083c.642.176 1.118.72 1.21 1.383 0 .621-.87 1.671-1.567 1.373l-.034.062zm2.123 6.177a1.033 1.033 0 0 1-.392-.595c.487 0 .33.114.392.595zm2.297-2.126c.11-.183.21-.373.296-.569.365.657.574 2.214-.192 2.678a7.786 7.786 0 0 0-.104-2.109zm7.892-6.869c0 .49-.122.411-.574.639-.087-.289.496-.376.574-.639zm2.14-7.411c.271.249.516.524.731.822a1.45 1.45 0 0 1-.73-.822zm-1.244.831l.105.175c-.096 0-.13-.07-.105-.175zm-22.51 1.199h-.244a12.99 12.99 0 0 1 1.74-2.013c-.435.717-.936 1.39-1.496 2.013zm-1.401 5.451c-.374 0-.47.727-.87.508-.4-.219 0-.63-.078-.875-.079-.245-.253-.298-.331-.447a1.627 1.627 0 0 1-.165-.97c.07-.553.423-1.029.93-1.252.236-.114.497-.131.723-.227.226-.097.365-.316.53-.35.584-.105.357.638.41.874.052.237.304.49.348.78.047.314.005.635-.122.927-.25.548-.763.928-1.358 1.006l-.017.026zm13.287-22.951a3.352 3.352 0 0 1 2.027.464 6.69 6.69 0 0 0 2.393 1.024c-.54 0-1.653.245-2.062-.228 0 .639 1.079.962 1.584 1.076a2.597 2.597 0 0 1-1.366-.192c.207.32.512.562.87.691a2.55 2.55 0 0 1-2.176.779c.236.274.59.415.949.376a9.009 9.009 0 0 0-1.462 4.025 9.14 9.14 0 0 0-1.505-4.034c.361.045.721-.096.957-.376a2.524 2.524 0 0 1-2.167-.779c.357-.129.663-.371.87-.691-.43.186-.902.253-1.366.192.505-.113 1.54-.437 1.584-1.076-.4.473-1.54.228-2.071.228 1.1-.2 2.121-.714 2.94-1.479zM22.3 40.67c-.182-.105-.043 0 0 0zm18.543 2.476c-.07 0-.07-.052 0-.122v.122zm0 .079c.06.079.07.131 0 .166v-.166zM51.59 28.184a3.334 3.334 0 0 0-1.993-.324c.618-.201 2.089-.989 2.02-1.82-.07-.831-1.306-.359-1.81-.245.582-.429 1.513-1.19 1.435-2.021-.078-.832-1.575-.14-2.054.052 1.201-.665 2.037-2.441 1.166-3.675-1.087.63-1.74 1.75-2.74 2.52.983-1.137 3.41-4.558 1.07-5.696a23.246 23.246 0 0 1-3.263 5.355.714.714 0 0 0-.313-.245 4.593 4.593 0 0 1-1.602 2.223 1.753 1.753 0 0 0-.208-.403 18.13 18.13 0 0 1-2.358 2.485c-.592.604-1.245 1.4-.688 2.249.2.306.592.498.679.875.059.448-.158.887-.548 1.111a1.49 1.49 0 0 1-2.097-.315c.41-.08.745-.377.877-.776s.039-.838-.242-1.149c-.453.805-1.549.516-2.062-.061.31.126.662.082.93-.119a.965.965 0 0 0 .384-.861c-.705.612-1.47-.07-1.688-.797a2.979 2.979 0 0 1 .565-2.336c.2-.306.487-.682.775-.743 0 0 .295.087.382.096.2-.025.395-.072.583-.14.749-.149 1.558.149 1.532 1.05.87-.508.183-1.295-.522-1.488.87 0 1.375 1.059 2.27.875.445-.079 1.628-.77 1.062-1.312-.322 1.338-2.61-.079-3.428 0 .644-.368 1.74-.455 2.228.253A1.37 1.37 0 0 0 42.166 21c-.26-.359-.574-.35-.957-.499a2.868 2.868 0 0 1-.391-.227c-.244-.123-.27-.245-.453-.403a2.932 2.932 0 0 0 2.358-.936c.592-.875-.574-1.811-.104-2.704.392.193 1.122.341 1.4.7.28.359 0 1.015-.19 1.427a1.591 1.591 0 0 0 0 1.54c.234.49.565.945.06 1.417a.91.91 0 0 0 .682-.225.92.92 0 0 0 .31-.65c0-.446-.435-.735-.417-1.173.322.438.626.377 1.113.386.488.008.636 0 .375.533.391-.218.748-.953.304-1.286-.444-.332-1.453.324-.818-.639.4-.595.87-1.155 0-1.688-.609-.394-1.105-.377-1.61-.972-.504-.595-.809-.805-1.505-.42-.696.385-1.253.657-1.122 1.444.13.788.87 1.356.609 2.091-.261.735-1.053.875-1.636.989-.13-.744.87-1.365.357-2.1-.122-.175-1.306-.875-1.297-.394-.209-.096 0-.245 0-.393 0-.15-.122-.36.07-.36a1.888 1.888 0 0 1-.235-.288c.1.07.194.148.278.236v-.875c-.08.09-.174.167-.278.228.069-.101.147-.195.235-.28h-.87c.085.087.164.18.235.28a1.428 1.428 0 0 1-.288-.228v.875c.086-.088.183-.164.288-.227-.074.097-.152.19-.235.28.07 0 .226.665 0 .752-.061-.463-1.123.175-1.262.35-.53.674.235 1.392.33 2.065a5.655 5.655 0 0 1-2.192-1.19c-.731-.7-.426-1.312 0-2.1a2.004 2.004 0 0 0 .183-2.047c-.244-.359-1.74-1.208-1.819-.56-.27 0-.148-.298-.357-.28a.552.552 0 0 0 .27-.534c0-.262-.348-.394 0-.394a1.277 1.277 0 0 1-.34-.464c.18.07.34.184.462.333v-1.015c-.125.143-.28.256-.453.332 0-.183.218-.34.331-.463h-1.105c.113.131.296.289.33.463a1.253 1.253 0 0 1-.46-.332v1.102c.13-.113.278-.297.46-.332-.07.18-.183.34-.33.464.348 0 0 .14 0 .393a.57.57 0 0 0 .278.534c-.243 0-.052.149-.139.202a.173.173 0 0 1-.243 0c-.183 0-.357-.123-.636-.044-.748.21-1.427.621-1.41 1.478.018.858 1.01 1.75.87 2.625-.138.875-1.861 1.654-2.653 1.908.07-.569.583-1.172.461-1.75a.96.96 0 0 0-.626-.639c-.113-.043-.94-.122-.775 0-.183-.131 0-.236 0-.393 0-.158-.13-.36.061-.36a1.818 1.818 0 0 1-.235-.28c.105.064.202.14.287.228v-.875a1.428 1.428 0 0 1-.287.228c.069-.101.148-.195.235-.28h-.87c.087.085.166.179.235.28a1.428 1.428 0 0 1-.287-.228v.875c.096-.087.183-.157.287-.236-.069.104-.147.2-.235.289.235 0 0 .105.052.288.05.144.08.295.087.447-.2 0-.34-.166-.652-.07a1.687 1.687 0 0 0-.749.472c-.53.726.453 1.374.357 2.109-.557-.096-1.349-.324-1.601-.875-.252-.551.33-1.339.513-1.96s-.2-1.19-.818-1.531c-.617-.342-1.122-.438-1.653.166a2.47 2.47 0 0 1-.678.7c-.288.158-.636.175-.932.332-.922.508-.478 1.094-.06 1.75.591.945-.322.36-.757.596s-.157 1.102.243 1.33c-.252-.473 0-.508.366-.534.365-.026.783.079 1.122-.385 0 .437-.426.726-.418 1.172a.93.93 0 0 0 .313.648.92.92 0 0 0 .68.227c-.566-.542-.088-1.05.139-1.592a1.758 1.758 0 0 0-.174-1.566c-.148-.342-.366-.937-.079-1.287.287-.35 1.036-.463 1.393-.639.47.876-.68 1.794-.105 2.704a2.932 2.932 0 0 0 2.358.937c0 .34-.14.113-.287.244-.148.132-.209.298-.209.298-.357.192-.818.096-1.166.402a1.37 1.37 0 0 0 .105 1.978c.452-.709 1.583-.621 2.227-.254-.8-.052-3.098 1.365-3.428 0-.557.543.618 1.243 1.053 1.313.87.14 1.392-.875 2.28-.875-.705.192-1.41.98-.523 1.487 0-.875.783-1.198 1.532-1.05.288.047.578.08.87.096.235 0 .183-.078.452.202.142.151.27.315.383.49.47.635.666 1.432.548 2.213-.217.735-.983 1.41-1.688.797a.965.965 0 0 0 .383.861c.269.2.622.245.931.119-.513.568-1.618.875-2.062.061-.281.311-.374.75-.242 1.15.132.398.467.695.877.775a1.504 1.504 0 0 1-2.105.332 1.13 1.13 0 0 1-.583-1.006c0-.455.452-.647.687-.997.557-.875-.096-1.645-.687-2.249a18.13 18.13 0 0 1-2.359-2.485c-.086.124-.156.26-.208.402a4.593 4.593 0 0 1-1.575-2.222.714.714 0 0 0-.314.245 23.247 23.247 0 0 1-3.236-5.355c-2.35 1.129.087 4.559 1.061 5.696-1.061-.717-1.662-1.89-2.758-2.546-.87 1.234 0 3.01 1.166 3.675-.514-.175-1.993-.919-2.08-.026-.087.892.87 1.601 1.47 2.021-.487-.114-1.914-.455-1.783.35.13.805 1.288 1.479 1.984 1.75-.479 0-1.958-.149-1.906.586.052.735 1.436 1.356 2.106 1.453-.54.061-2.132.463-1.514 1.251.458.414 1.066.62 1.68.569-.48.166-1.463.875-.932 1.356.531.481 1.845.184 2.48-.053-.496.21-2.55 1.514-1.331 2.1 1.218.587 2.219-.77 3.02-1.303-.523.551-1.297.875-1.689 1.549-.209.35-.478 1.12.148 1.224-.122.15-.679.088-.87.132a1.15 1.15 0 0 0-.81.656c-.217.42-.095.289-.495.49s-.627.429-.548.875c.078.446.252.341.156.7-.096.359-.348.578-.209 1.059.105.341.418.542.531.875.113.332-.087.717.418.787-.418.648.296 1.216.913 1.216.566 0 .592-.245 1.062-.402.209-.07.47-.053.687-.123.147-.073.302-.129.462-.166.348-.052.922.289 1.226.149.305-.14.549-.962.697-1.269.323.27.695.475 1.096.604.287.123.87.201 1.044.464.174.262-.052.534.104.752.157.219.74 0 .653-.35.052.228-.165.464 0 .674a.321.321 0 0 0 .54 0c0 .534.66.376.713 0l3.533 1.654c-.618.315-1.097 1.015-1.74 1.198-.54.15-1.227-.516-.575-.874-.417-.105-.87.306-1.01.664-.086.193 0 .438-.077.595-.079.158-.296.298-.522.49-.67.57-1.28 1.75-.627 2.512a2.18 2.18 0 0 1 .87-1.426c-.024.51.151 1.008.487 1.39-.313.167-2.131.762-2 1.226.13.463 1.809-.63 2.053-.753-.087.333.791-.394.93-.472.253.511.782.824 1.35.796a2.35 2.35 0 0 1-2.924.595c.243.936 1.4 1.181 2.227 1.024a2.51 2.51 0 0 0 1.862-1.619 1.734 1.734 0 0 0 2.332.429c.148.332.505 1.058.87 1.102.366.044.87-.735 1.027-1.102.443.274.984.334 1.476.165.491-.17.882-.551 1.065-1.04.505.192.81.542 1.4.385.491-.141.87-.535.993-1.033.409.114.496.63.93.718a.633.633 0 0 1-.069-.306c.548.253 2.837 1.75 3.359.97.609-.953-1.636-1.032-.87-1.662.409-.35.696.28 1.105.333.409.052.418-.149.592-.534.27-.569.496-1.164.774-1.75.278-.586.435-.744-.122-1.006a2.478 2.478 0 0 0 1.358-2.284 1.957 1.957 0 0 0-.47-1.216c-.444-.481-.87-.175-1.419-.438.163.377.4.716.696.998-.287.122-.66-.201-.87-.359 0 .516.688.718.87 1.164.227.665-.435 1.111-1 1.19-1.018.149-2.906-.77-2.906-1.89 0 .288.435.148.53 0 .096-.149-.095-.709 0-.753-.06.271.148.7.479.586.33-.113.157-.428.174-.656.06-.779.87-.875 1.444-1.216l4.508-2.17a1.657 1.657 0 0 1-.331-.639c-.496.263-1.044.42-1.549.665.113.21-1.47.875-1.74 1.041-.385.262-.786.498-1.2.71-.514.2-.366.113-.619-.255-.252-.367-.66-.577-1-.236a1.799 1.799 0 0 0-1.523-1.671c.305-.508 1.053-1.068 1.636-.639.583.429.104 1.287.626 1.566 0-.253-.06-.77.2-.875.072.406.21.796.41 1.155.139-.76.748-1.023.321-1.846.444.096.949-.481.87-.927.51.293 1.085.45 1.671.455-.13-.166-.052 0 0-.131.33.428-.148 0 0 .41.052.176.218.28.252.412.035.131 0 .315 0 .394l.166.061a.308.308 0 0 0 0 .341c.296-.166.6-.297.87-.455a.878.878 0 0 1-.418-1.461c.157-.175.392-.271.548-.455.157-.184.105-.271.235-.359.348-.236.279.175.453-.332.4-1.19-1.2-1.75-1.854-2.442.74.49 2.02 1.934 3.08 1.287 1.062-.648-.87-1.864-1.391-2.083.609.219 2.027.648 2.549 0 .522-.647-.574-1.155-1-1.304.495 0 1.948-.227 1.853-.962-.079-.586-1.236-.805-1.688-.875.87-.131 2.044-.691 2.184-1.75l-.009.009z"/>
        <path fill="#808D9C" fill-rule="nonzero" d="M48.814 37.004c-.46.236-.47.621-.757.945-.287.324-.356.105-.391.498.06.368.226.709.478.98.061.062.14.193.244.202.278 0 .2-.193.34-.219.33-.061.66.166 1.026.07a1.334 1.334 0 0 0 .44-2.334 1.317 1.317 0 0 0-1.38-.142M46.065 39.375a.299.299 0 0 1-.053-.324c-.226-.061-.87.201-.87.473.316.06.642.007.923-.149M45.856 38.946a.28.28 0 0 1 0-.428 1.387 1.387 0 0 0-1.184.332c.288.289.87.192 1.184.096M45.743 38.447a.368.368 0 0 1 0-.568 3.107 3.107 0 0 0-1.575.122c.459.352 1.036.512 1.61.447M49.014 40.749c-.452 0-.67.42-1.157.166a.983.983 0 0 1-.365-1.155c-.305.149-.6.324-.87.464 0 .131.147.192.26.227-.13.219 0 .455.27.403 0 .306.174.621.496.455 0 .437.253.358.496.481.244.123.296.481.6.096a.682.682 0 0 0 .323.464c.235.087.382-.14.565-.123 0 0-.87 2.38-.139 2.206.174-.727 1.392-3.938-.444-3.684"/>
        <path fill="#808D9C" fill-rule="nonzero" d="M46.752 40.495c-.33-.385-.696 0-.87.429a.99.99 0 0 0 .87-.429M47.048 41.011c-.061-.114-.313-.087-.33-.341-.28.219-.68.612-.61 1.015.393-.084.733-.328.94-.674M47.196 41.352a.403.403 0 0 1-.14-.297c-.304.49-.695.936-.582 1.557a3.049 3.049 0 0 0 1.026-1.198.295.295 0 0 1-.304-.062"/>
        <path fill="#808D9C" fill-rule="nonzero" d="M47.962 41.886a.49.49 0 0 1-.4-.481 3.09 3.09 0 0 0-.618 1.75c.46-.184.774-.875 1.018-1.295M48.118 42.718l.357-.596c-.505 0-.235-.577-.653.097a3.514 3.514 0 0 0-.504 1.75c.337-.36.608-.778.8-1.234"/>
        <path fill="#808D9C" fill-rule="nonzero" d="M48.884 42.333a.877.877 0 0 1-.157-.333c-.513.367-1.41 2.328-1.07 2.888.618-.508.922-1.812 1.227-2.555z"/>
        <path fill="#808D9C" fill-rule="nonzero" d="M49.014 43.803l.583-1.497c-.208.149-.513 0-.626.114-.113.114-.33.814-.41 1.024a3.517 3.517 0 0 0-.408 2.152c.444-.236.687-1.338.861-1.793z"/>
        <path fill="#808D9C" fill-rule="nonzero" d="M49.04 43.995a3.324 3.324 0 0 0-.313 2.791l.696-2.275c-.27 0-.365-.271-.382-.516"/>
        <path fill="#FFF" fill-rule="nonzero" d="M32.995 29.015h-4.072c-.418 0-.426-.096-.53.192a5.543 5.543 0 0 0 0 1.61v5.058c-.1 1.089-.1 2.184 0 3.273.226 1.11 1.113 1.172 2.062 1.172 1.105 0 2.123.053 2.497 1.339.67-2.424 3.141-.377 4.272-1.838.583-.752.322-2.441.322-3.334v-7c0-.358.078-.358-.157-.463a3.366 3.366 0 0 0-.983 0h-3.48l.07-.009z"/>
        <path stroke="#FFF" stroke-width=".03" d="M32.995 29.015h-4.072c-.418 0-.426-.096-.53.192a5.543 5.543 0 0 0 0 1.61v5.058c-.1 1.089-.1 2.184 0 3.273.226 1.11 1.113 1.172 2.062 1.172 1.105 0 2.123.053 2.497 1.339.67-2.424 3.141-.377 4.272-1.838.583-.752.322-2.441.322-3.334v-7c0-.358.078-.358-.157-.463a3.366 3.366 0 0 0-.983 0h-3.48l.07-.009z"/>
        <path fill="#808D9C" fill-rule="nonzero" d="M31.125 38.229c-.557 0-.4-.788-.261-1.111.26-.587.87-.823 1.287-1.252.113.079.07.447.148.569.079.122.374.271.505.438.13.166.165.472.33.656 0-.289 0 .166.053.175l-.644.227c.522-1.181-2.088-.988-1.418.298zm2.227-.998c-.06-.192-.566-2.686.096-1.496a.651.651 0 0 0 0 .385.182.182 0 0 0 .235 0c.095.079.278.096.4.21.222.196.385.45.47.735 0 .131-.14.315-.061.403 0-.097.217-.21.2-.053-.017.157-.261.07-.113.21a.33.33 0 0 1 .148-.07c.13.341-.209.123-.305.289a.242.242 0 0 0 .113 0s-.609 0-.687-.132h.296c.026 0 0-.262-.087-.236-.087.026-.313.228-.461.324a.384.384 0 0 1 .356-.35c.114-.376-.435 0-.435 0s0-.263-.113-.289l-.087.053.035.017zm-2.027-7.28c.078 0-.061.788-.148.875-.348.333-.975.053-1.166.639-.11.375-.003.78.278 1.05.145.044.293.074.444.087.087 0 0 .14.183.176.192-.024.382-.068.565-.132.461-.061.54 0 .627.455.087.455.122.394-.079.543-.314.107-.642.17-.974.184-.444-.14-.513-.762-1.114-.254a1.323 1.323 0 0 0-.365.621c-.105.324-.122.464.07.595.013.236.013.473 0 .709a.674.674 0 0 0 .226-.368.712.712 0 0 1-.044.447c.214-.164.39-.373.513-.613a.528.528 0 0 1-.052.481c.635-.183.079-.875.244-1.312.322-.805.27.367.287.577 0 .604.435.797.13 1.4a2.632 2.632 0 0 0-.295.639c-.061.236-.4.744-.383.954h.183c0 .044-.061.288-.122.288-.322 0 0-1.303-.644-.927.478.07.26.691.365 1.006a1.05 1.05 0 0 0 1.323.587.358.358 0 0 1-.235.262c0 .061.479 0 .522 0 .044 0 .14.227.244.28.43.138.88.197 1.331.175a.868.868 0 0 0 .87-.359c.113-.14.157-.332.34-.411.182-.079.443.175.678.184 0 0 .548-.175.618-.193.235-.061.505-.113.574-.393-.06-.044-.104 0-.148.096.14 0 0-.149 0 0 0 .148-.07.105 0 0a.422.422 0 0 0 0-.254.228.228 0 0 1-.113.236c-.096.123-.122.07-.07-.14 0 .202-.582.236-.609 0-.026-.236.331-.332.357-.218 0-.123 0-.263.122-.316a.281.281 0 0 1 0 .237c0-.219 0-.245.113-.062.13-.472-.679.106-.87 0-.191-.104-.148-.682-.2-.874-.105-.386-.461-.876-.383-1.313.157.403 1.305-.954 1.531-.481.087.192-.27.542-.374.63-.104.087 0 .131 0 .131s-.156-.157-.26.079c-.183.393.313.324.547.157.238-.255.387-.58.427-.927.209-1.076-.53-.656-1.227-.543 0-.427-.076-.851-.226-1.251.14-.04.271-.102.391-.184 0 0 .41.228.627 0 .217-.227.122-.875-.061-1.129.374 0 0-.2.235-.454-.235-.114-.54 0-.348-.333-.305-.087-1.131-.262-1.392 0 0 .079.087.114.191.114-.244-.053-.87.245-.592.28-.182.271-.652-.132-.104.183.14-.07-.322.228-.252.245-.122 0-.618-.63-.566-.7.792.386.609-1.54-.287-.813.93-.639.87.971.478.752a.561.561 0 0 0 .227-.551c-.13.402 0 0-.079 0 .03.073.03.155 0 .227a.641.641 0 0 1-.06-.166c-.21.044-.418 0-.505.412-.166 0-.061-.307-.183-.105-.078 0 .096-.254.122-.272a.515.515 0 0 0-.192.219c-.156-.044.044-.28.113-.306-.078.113-.156.14-.234.07-.079-.07.426-.306.522-.341-.174.06-.462.06-.505.244-.044.184.348.298.104.57-.243-.237-.617-.255-.87-.438-.252-.184-.226-.709-.391-.963z"/>
        <path fill="#FABC42" fill-rule="nonzero" d="M45.003 43.015l-.096.044a.622.622 0 0 0 .096.149c0-.044.157-.088.105-.158h-.105v-.035zm0 .297c-.226 0-.2-.367 0-.34.2.026.165.227 0 .306v.035zm-2.193-4.506c-.208 0 0 .132 0 .184 0 .052.157-.079.105-.157h-.113l.008-.027zm-.008.28c-.218 0-.2-.35 0-.332.2.017.174.236.008.306l-.008.026zm6.587 5.416l-.662 2.258c-.3-.94-.183-1.963.322-2.809 0 .228.113.499.383.525l-.043.026zm-.827.394c-.082.267-.247.5-.47.665a3.719 3.719 0 0 1 .435-2.231c.057-.262.148-.515.27-.752.226-.28.478-.132.757-.316-.34.876-.67 1.75-1.01 2.634h.018zm-.2-1.356a3.11 3.11 0 0 1-.775 1.321c-.426-.717.496-2.458 1.07-2.896.227.586-.086 1.006-.313 1.575h.018zm-.783.053c-.083.119-.183.225-.296.314.02-.62.203-1.224.53-1.75.4-.594.149 0 .645-.07-.296.508-.549 1.042-.87 1.532l-.01-.026zm-.218-.85a1.22 1.22 0 0 1-.444.403c.024-.633.24-1.243.618-1.75.014.235.181.431.41.481-.149.32-.345.616-.584.875v-.008zm.113-1.364c-.232.486-.59.9-1.035 1.199-.122-.604.296-1.086.592-1.558a.386.386 0 0 0 .443.359zm-1.41.271c-.069-.42.331-.796.627-1.024a.29.29 0 0 0 .348.254c-.2.385-.555.666-.974.77zm.618-1.076c0 .175-.74.367-.87.315.079-.175.287-.534.505-.578.218-.044.444 0 .365.263zm3.098.472c.461.447.261 1.252.148 1.75-.06.254-.191 1.444-.461 1.549-.705.289-.061-2.214.14-2.196-.427 0-.793.288-.871-.342-.252.316-1.114-.21-1.105-.577-.218.096-.296 0-.435-.14a.255.255 0 0 1-.061-.201c0-.132 0-.175-.183-.123a1.847 1.847 0 0 0-.156-.236c.113.123-.218-.481-.21-.394.323-.131.61-.315.923-.464a.88.88 0 0 0 .045.797.87.87 0 0 0 .669.428c.6 0 1.105-.507 1.592.105l-.035.044zm-7.718-7.455l1.619.56c.13.053.565.123.643.228.079.105-.095.367.2.621a3.476 3.476 0 0 1-2.462-1.409zm2.271 2.074a2.9 2.9 0 0 1-1.67-.875c.452-.236 1.113.053 1.548.184.662.21 1.332.402 2.002.595-.227.078-.331.341-.557.393-.41.114-.94-.21-1.323-.306v.009zm-1.4-.061c.748-.201 2.557.148 2.992.875-.687.227-2.67-.088-2.993-.875zm2.279 1.426a3.902 3.902 0 0 1-1.688-.613 7.044 7.044 0 0 1 2.184.15c-.383.376.2.568-.557.498l.06-.035zm.261.674a2.696 2.696 0 0 1-1.54-.525c.47-.306 1.148-.096 1.662-.062a.518.518 0 0 0 .148.613l-.27-.026zm-.226.621a1.613 1.613 0 0 1-1.14-.429 3.099 3.099 0 0 1 1.6-.122.377.377 0 0 0 0 .569 1.454 1.454 0 0 0-.478 0l.018-.018zm-.618.438a1.551 1.551 0 0 1 1.2-.333.29.29 0 0 0 0 .438c-.365.096-.87.2-1.2-.105zm.47.656c.07-.28.783-.656.87-.385.191.464-.722.42-.87.385zm-.74-4.725v-.28c.87.358 2.42.498 2.854 1.522.296.691-.165.928-.6 1.322a.878.878 0 0 0 .374 1.54c-.305.157-.626.288-.922.463-.079-.087-.096-.35-.113-.376a5.164 5.164 0 0 1-.174-.289l.095-.148-.174-.14c0-.237-.209-.342.105-.526-.296-.218-.21-1.224.182-1.242-.478-.481 0-.551.253-.875-.113.184-1.828-.648-1.923-.875l.043-.096zm-.496 12.048c-.2.333-.357 1.383-1.053.858-.235-.184-.174 0-.139-.324a.815.815 0 0 1 .209-.402c.27-.254.644-.158.983-.21v.078zm.548-.253c0 .306-.26.341-.478.149.164-.033.325-.083.478-.15zm-4.672.761l.87-1.75c.635.542 1.453.612.992 1.566-.078.158-.313.709-.47.779-.34.123-1.105-.455-1.392-.595zm-.305 1.374l-1.74-.875c.444-.088.679-.315 1.149-.202.253.055.49.166.696.324l.235.114-.34.639zm-7.396-.193a2.277 2.277 0 0 1-2.062-.21c.435-.218 2.82-1.75 3.15-1.172.33.577-.766 1.207-1.088 1.382zm.105-1.881l-2.289 1.172a2.63 2.63 0 0 1 .748-1.478c.557-.394 1.019.131 1.54.324v-.018zm3.532-3.745a2.652 2.652 0 0 1 2.75.56l-3.811 1.942c.078-.822.174-2.117 1.061-2.502zm-.87 3.045l3.985-1.995c.168.986-.2 1.986-.965 2.625-1.019.595-2.15-.105-3.02-.63zm-15.793-4.48c-.47.053-.583.875-1.2.499-.305-.184-.235-.42-.279-.727a.22.22 0 0 0 .105-.27l-.131-.114c-.218-.596-.505-.954-.252-1.628a1.674 1.674 0 0 1 1.14-1.024c.211-.018.421-.056.626-.114.252-.096.305-.463.74-.323s.339.411.383.717c-.131.14-.122.254 0 .35.066.077.108.171.121.272.22.482.2 1.04-.054 1.506a1.67 1.67 0 0 1-1.233.856h.034zm31.543-3.859a1.386 1.386 0 0 0-2.07-.42 3.698 3.698 0 0 0-.628 1.12c-.235.42-.621.733-1.079.875-2.401 1.164-4.69 2.389-7.013 3.579-.209-1.33-.705-3.071.435-4.139.444-.411 1.14-.612 1.514 0 .244.394 0 1.033.444 1.33 0-.254-.061-.77.2-.927.084.406.224.797.418 1.163.087-.498.54-.682.53-1.242a1.918 1.918 0 0 0-.765-1.295 2.598 2.598 0 0 0-2.759-.193c-1.566.875-1.662 3.054-1.34 4.612a3.334 3.334 0 0 0-3.55-.088c-1 .7-1.314 2.03-1.47 3.185-.87-.306-1.74 0-2.567-.35-.827-.35-1.81-.875-2.715-1.338-2.088-.972-4.168-1.97-6.274-2.906l.627-1.312c-.87-.411-1.044-1.032-1.384-1.82 0-.053-.156-.061-.182-.114-.026-.052.043-.166 0-.315a1.703 1.703 0 0 0-.253-.621c-.391-.499-.678-.236-1.096 0-.13.07-.165.157-.296.201-.13.044-.217-.087-.27-.07-.112.037-.22.087-.322.149-.06 0-.148.201-.174.201-.026 0-.304-.07-.435-.07-.27.014-.532.101-.757.254-.356.271-.313.77-.696.98-.2.105-.374 0-.565.175a.641.641 0 0 0-.105.718c.052.21.166.28.148.525-.017.245-.26.463-.304.717-.114.586.426.787.6 1.26.136.402.25.81.34 1.225.165.709.495.875 1.14.551.18-.106.373-.191.573-.253.157-.044.235 0 .4-.044.166-.044.175-.228.444-.28.27-.053.444 0 .592 0a.952.952 0 0 1 .487.052c.21.062.279.245.505.096.226-.148.096-.875.426-1.085.331-.21.87.342 1.14.464.714.359 1.453.683 2.176 1.015l5.22 2.45a3.604 3.604 0 0 0-1.009 2.048c-1.035-.727-2.393-1.234-3.533-.42-.774.551-1.496 1.75-.791 2.625a2.474 2.474 0 0 1 1.453-1.89c.86-.28 1.804-.08 2.48.525-.47.236-4.821 2.257-4.603 2.625.33.525 4.35-1.943 4.881-2.214.11.9-.216 1.8-.879 2.415a2.477 2.477 0 0 1-2.497.105c.322 1.19 2.01 1.26 2.924.814a3.173 3.173 0 0 0 1.444-2.958 3.248 3.248 0 0 0 3.576-.288c.23-.203.431-.436.6-.692.074-.151.159-.298.253-.437.252-.271.191-.201.565 0l2.61 1.199a45.868 45.868 0 0 0 4.7 2.205c.452.148 1.253.192 1.113-.543-.104-.525-.87-.674-1.244-.875.566-1.19 1.044.367 1.688-.105.357-.254.635-1.146.81-1.549l.408-.997c.192-.464.253-.447-.209-.665a2.855 2.855 0 0 0 1.375-2.328 2.036 2.036 0 0 0-.54-1.251c-.443-.499-.87-.175-1.426-.438 0 .14.618 1.05.705 1.007-.279.131-.67-.21-.87-.368 0 .543.713.761.87 1.234.208.682-.488 1.067-1.053 1.137-1.575.193-2.61-1.26-3.629-2.24 2.306-1.146 4.664-2.222 6.961-3.447a2.601 2.601 0 0 1 1.062-.385 10.98 10.98 0 0 0 1.557 0c.426-.041.804-.29 1.01-.666a1.31 1.31 0 0 0 .026-1.215l-.078.017z"/>
    </g>
</svg>
